<svg xmlns="http://www.w3.org/2000/svg" viewBox="0 0 1200 400" width="1200" height="400">
  <defs>
    <linearGradient id="bg" x1="0%" y1="0%" x2="100%" y2="100%">
      <stop offset="0%" style="stop-color:#0a0a0a"/>
      <stop offset="50%" style="stop-color:#111111"/>
      <stop offset="100%" style="stop-color:#0d0d0d"/>
    </linearGradient>
    <radialGradient id="glow1" cx="20%" cy="60%" r="35%">
      <stop offset="0%" style="stop-color:#F39C12;stop-opacity:0.15"/>
      <stop offset="100%" style="stop-color:#F39C12;stop-opacity:0"/>
    </radialGradient>
    <radialGradient id="glow2" cx="35%" cy="30%" r="25%">
      <stop offset="0%" style="stop-color:#F39C12;stop-opacity:0.1"/>
      <stop offset="100%" style="stop-color:#F39C12;stop-opacity:0"/>
    </radialGradient>
  </defs>
  <rect width="1200" height="400" fill="url(#bg)"/>
  <rect width="1200" height="400" fill="url(#glow1)"/>
  <rect width="1200" height="400" fill="url(#glow2)"/>

  <circle cx="78" cy="364" r="2.2" fill="white" opacity="0.9"/>
  <circle cx="529" cy="97" r="2.9" fill="white" opacity="0.2"/>
  <circle cx="620" cy="260" r="2.1" fill="white" opacity="0.3"/>
  <circle cx="274" cy="63" r="3.5" fill="white" opacity="0.4"/>
  <circle cx="123" cy="350" r="2.7" fill="white" opacity="0.5"/>
  <circle cx="588" cy="343" r="1.8" fill="white" opacity="0.7"/>
  <circle cx="155" cy="177" r="2.3" fill="white" opacity="0.7"/>
  <circle cx="417" cy="136" r="3.1" fill="white" opacity="0.8"/>
  <circle cx="462" cy="77" r="2.0" fill="white" opacity="0.5"/>
  <circle cx="447" cy="342" r="1.1" fill="white" opacity="0.7"/>
  <circle cx="311" cy="254" r="1.8" fill="white" opacity="0.5"/>
  <circle cx="291" cy="244" r="2.7" fill="white" opacity="0.5"/>
  <circle cx="561" cy="168" r="1.4" fill="white" opacity="0.8"/>
  <circle cx="596" cy="97" r="3.5" fill="white" opacity="0.7"/>
  <circle cx="336" cy="123" r="3.1" fill="white" opacity="0.3"/>
  <circle cx="568" cy="297" r="2.1" fill="white" opacity="0.5"/>
  <circle cx="486" cy="328" r="1.6" fill="white" opacity="0.4"/>
  <circle cx="605" cy="71" r="2.5" fill="white" opacity="0.4"/>
  <circle cx="612" cy="341" r="1.0" fill="white" opacity="0.8"/>
  <circle cx="513" cy="226" r="1.6" fill="white" opacity="0.4"/>
  <circle cx="172" cy="333" r="2.4" fill="white" opacity="0.6"/>
  <circle cx="602" cy="170" r="2.1" fill="white" opacity="0.3"/>
  <circle cx="380" cy="318" r="3.7" fill="white" opacity="0.8"/>
  <circle cx="323" cy="155" r="3.6" fill="white" opacity="0.7"/>
  <circle cx="108" cy="56" r="2.7" fill="white" opacity="0.6"/>
  <circle cx="386" cy="59" r="3.8" fill="white" opacity="0.5"/>
  <circle cx="505" cy="114" r="3.6" fill="white" opacity="0.3"/>
  <circle cx="574" cy="176" r="2.2" fill="white" opacity="0.7"/>
  <circle cx="95" cy="35" r="1.3" fill="white" opacity="0.3"/>
  <circle cx="234" cy="55" r="2.8" fill="white" opacity="0.4"/>
  <circle cx="422" cy="362" r="2.8" fill="white" opacity="0.9"/>
  <circle cx="244" cy="32" r="2.2" fill="white" opacity="0.4"/>
  <circle cx="568" cy="264" r="1.4" fill="white" opacity="0.6"/>
  <circle cx="51" cy="104" r="2.7" fill="white" opacity="0.4"/>
  <circle cx="381" cy="128" r="2.5" fill="white" opacity="0.2"/>
  <circle cx="415" cy="192" r="2.8" fill="white" opacity="0.2"/>
  <circle cx="123" cy="347" r="1.4" fill="white" opacity="0.4"/>
  <circle cx="550" cy="30" r="2.4" fill="white" opacity="0.9"/>
  <circle cx="247" cy="308" r="3.3" fill="white" opacity="0.8"/>
  <circle cx="598" cy="153" r="3.4" fill="white" opacity="0.4"/>
  <circle cx="149" cy="304" r="1.5" fill="white" opacity="0.3"/>
  <circle cx="497" cy="305" r="1.8" fill="white" opacity="0.3"/>
  <circle cx="580" cy="118" r="2.6" fill="white" opacity="0.7"/>
  <circle cx="68" cy="48" r="2.6" fill="white" opacity="0.8"/>
  <circle cx="177" cy="169" r="2.4" fill="white" opacity="0.7"/>
  <circle cx="377" cy="141" r="1.9" fill="white" opacity="0.7"/>
  <circle cx="580" cy="255" r="3.9" fill="white" opacity="0.4"/>
  <circle cx="562" cy="315" r="3.8" fill="white" opacity="0.3"/>
  <circle cx="611" cy="340" r="1.9" fill="white" opacity="0.2"/>
  <circle cx="379" cy="114" r="3.9" fill="white" opacity="0.8"/>
  <circle cx="277" cy="75" r="1.2" fill="white" opacity="0.6"/>
  <circle cx="191" cy="177" r="3.3" fill="white" opacity="0.9"/>
  <circle cx="596" cy="331" r="3.8" fill="white" opacity="0.7"/>
  <circle cx="614" cy="120" r="1.9" fill="white" opacity="0.4"/>
  <circle cx="122" cy="330" r="3.5" fill="white" opacity="0.9"/>
  <circle cx="478" cy="320" r="1.3" fill="white" opacity="0.3"/>
  <circle cx="100" cy="83" r="3.3" fill="white" opacity="0.3"/>
  <circle cx="541" cy="102" r="3.3" fill="white" opacity="0.4"/>
  <circle cx="373" cy="306" r="3.8" fill="white" opacity="0.3"/>
  <circle cx="223" cy="261" r="2.0" fill="white" opacity="0.9"/>

  <line x1="571" y1="165" x2="682" y2="179" stroke="white" stroke-width="0.5" opacity="0.15"/>
  <line x1="495" y1="182" x2="587" y2="218" stroke="white" stroke-width="0.5" opacity="0.15"/>
  <line x1="272" y1="301" x2="320" y2="298" stroke="white" stroke-width="0.5" opacity="0.15"/>
  <line x1="199" y1="79" x2="268" y2="8" stroke="white" stroke-width="0.5" opacity="0.15"/>
  <line x1="582" y1="185" x2="625" y2="187" stroke="white" stroke-width="0.5" opacity="0.15"/>
  <line x1="52" y1="129" x2="129" y2="184" stroke="white" stroke-width="0.5" opacity="0.15"/>
  <line x1="322" y1="211" x2="416" y2="202" stroke="white" stroke-width="0.5" opacity="0.15"/>
  <line x1="83" y1="285" x2="184" y2="253" stroke="white" stroke-width="0.5" opacity="0.15"/>
  <line x1="138" y1="275" x2="185" y2="212" stroke="white" stroke-width="0.5" opacity="0.15"/>
  <line x1="351" y1="53" x2="460" y2="95" stroke="white" stroke-width="0.5" opacity="0.15"/>
  <line x1="550" y1="104" x2="605" y2="85" stroke="white" stroke-width="0.5" opacity="0.15"/>
  <line x1="281" y1="238" x2="380" y2="247" stroke="white" stroke-width="0.5" opacity="0.15"/>
  <line x1="522" y1="36" x2="572" y2="12" stroke="white" stroke-width="0.5" opacity="0.15"/>
  <line x1="100" y1="154" x2="193" y2="234" stroke="white" stroke-width="0.5" opacity="0.15"/>
  <line x1="505" y1="360" x2="568" y2="360" stroke="white" stroke-width="0.5" opacity="0.15"/>

  <line x1="650" y1="60" x2="650" y2="340" stroke="white" stroke-width="0.5" opacity="0.15"/>
  <text x="680" y="155" font-family="'SF Pro Display','Helvetica Neue',Arial,sans-serif" font-size="46" font-weight="800" fill="white" letter-spacing="3">PROMPT ENGINEERING</text>
  <text x="680" y="200" font-family="'SF Pro Display','Helvetica Neue',Arial,sans-serif" font-size="16" font-weight="400" fill="white" opacity="0.85" letter-spacing="2">PROMPT ENGINEERING</text>
  <text x="680" y="230" font-family="'Noto Sans SC','PingFang SC','Microsoft YaHei',sans-serif" font-size="15" font-weight="300" fill="white" opacity="0.6" letter-spacing="1.5">模板管理 · 版本控制 · A/B 测试 · 评估引擎 · 协作编辑</text>
  <text x="680" y="275" font-family="'SF Mono','Fira Code','Consolas',monospace" font-size="13" fill="white" opacity="0.45" letter-spacing="1.5">FastAPI · Vue.js · Python</text>
  <line x1="680" y1="305" x2="1140" y2="305" stroke="white" stroke-width="0.5" opacity="0.15"/>
  <text x="680" y="330" font-family="'SF Mono','Fira Code','Consolas',monospace" font-size="11" fill="white" opacity="0.35" letter-spacing="1">PROMPT · ENGINEERING · LLM · A/B TESTING</text>
</svg>